<?xml version="1.0" encoding="UTF-8" standalone="no"?>
<!-- Created with Inkscape (http://www.inkscape.org/) -->

<svg
   width="100mm"
   height="100mm"
   viewBox="0 0 100 100"
   version="1.1"
   id="svg5"
   xml:space="preserve"
   sodipodi:docname="icon.svg"
   inkscape:version="1.2.2 (732a01da63, 2022-12-09)"
   inkscape:export-filename="icon-small.png"
   inkscape:export-xdpi="32.512001"
   inkscape:export-ydpi="32.512001"
   xmlns:inkscape="http://www.inkscape.org/namespaces/inkscape"
   xmlns:sodipodi="http://sodipodi.sourceforge.net/DTD/sodipodi-0.dtd"
   xmlns:xlink="http://www.w3.org/1999/xlink"
   xmlns="http://www.w3.org/2000/svg"
   xmlns:svg="http://www.w3.org/2000/svg"><sodipodi:namedview
     id="namedview7"
     pagecolor="#505050"
     bordercolor="#ffffff"
     borderopacity="1"
     inkscape:showpageshadow="0"
     inkscape:pageopacity="0"
     inkscape:pagecheckerboard="1"
     inkscape:deskcolor="#505050"
     inkscape:document-units="mm"
     showgrid="false"
     inkscape:zoom="1.4142136"
     inkscape:cx="196.57568"
     inkscape:cy="176.42314"
     inkscape:window-width="1352"
     inkscape:window-height="1230"
     inkscape:window-x="684"
     inkscape:window-y="78"
     inkscape:window-maximized="1"
     inkscape:current-layer="layer1" /><defs
     id="defs2"><linearGradient
       inkscape:collect="always"
       id="linearGradient24805"><stop
         style="stop-color:#00eae4;stop-opacity:0;"
         offset="0"
         id="stop24801" /><stop
         style="stop-color:#00eae4;stop-opacity:1;"
         offset="1"
         id="stop24803" /></linearGradient><clipPath
       clipPathUnits="userSpaceOnUse"
       id="clipPath6264"><rect
         style="fill:#ff0000;fill-opacity:1;stroke:#878787;stroke-width:10.0339;stroke-linejoin:round;stroke-dasharray:none;stroke-opacity:0;paint-order:markers fill stroke"
         id="rect6266"
         width="117.19037"
         height="83.282318"
         x="-9.4154644"
         y="19.178732" /></clipPath><linearGradient
       inkscape:collect="always"
       xlink:href="#linearGradient24805"
       id="linearGradient24807"
       x1="59.042908"
       y1="69.699623"
       x2="64.065338"
       y2="89.411079"
       gradientUnits="userSpaceOnUse" /></defs><g
     inkscape:label="Layer 1"
     inkscape:groupmode="layer"
     id="layer1"><rect
       style="fill:#ffffff;fill-opacity:1;stroke:none;stroke-width:0.733403;stroke-linejoin:round;stroke-dasharray:none;stroke-opacity:0.552174;paint-order:markers fill stroke"
       id="rect18365"
       width="64.009529"
       height="87.495949"
       x="17.594791"
       y="5.4239583" /><path
       id="path23708-9"
       clip-path="none"
       style="color:#000000;fill:url(#linearGradient24807);-inkscape-stroke:none;fill-opacity:1"
       d="M 67.265662 64.603292 L 66.466744 64.872009 L 66.466744 77.580278 L 50.400541 77.580278 L 50.400541 70.276331 L 49.599556 70.545565 L 49.599556 77.580278 L 33.533354 77.580278 L 33.533354 75.949886 L 32.734436 76.218604 L 32.734436 77.580278 L 28.686104 77.580278 L 26.102283 78.449475 L 32.734436 78.449475 L 32.734436 92.91991 L 33.533354 92.91991 L 33.533354 78.449475 L 49.599556 78.449475 L 49.599556 92.91991 L 50.400541 92.91991 L 50.400541 78.449475 L 66.466744 78.449475 L 66.466744 92.91991 L 67.265662 92.91991 L 67.265662 78.449475 L 80.138778 78.449475 L 80.138778 77.580278 L 67.265662 77.580278 L 67.265662 64.603292 z " /><rect
       style="fill:none;stroke-width:8.46667;stroke-linejoin:round;paint-order:markers fill stroke"
       id="rect234"
       width="100"
       height="100"
       x="0"
       y="0" /><path
       id="rect792-2"
       style="color:#000000;fill:#ffffff;fill-opacity:1;stroke:#00eae4;stroke-linejoin:round;stroke-opacity:1;paint-order:markers fill stroke;stroke-width:0.98;stroke-dasharray:none"
       d="M 13.359908 44.846875 C 13.361474 62.101801 13.362374 79.356749 13.367143 96.611157 C 13.740966 98.830612 16.331633 100.08225 18.39836 99.507621 C 40.225055 99.498521 62.052951 99.49467 83.879118 99.4823 C 86.10106 99.030916 87.19902 96.413614 86.646391 94.359098 C 86.64677 77.855134 86.647767 61.351035 86.648975 44.846875 L 80.134127 44.846875 C 80.15183 60.268939 80.137299 75.691229 80.134644 91.113302 C 79.959017 91.588744 80.487872 92.41817 79.824068 92.578328 C 73.156752 93.445958 66.419117 92.786406 59.719869 92.994324 C 46.603606 92.998124 33.487112 93.001883 20.37085 93.005693 C 19.360498 86.601054 20.081867 80.101113 19.869071 73.651835 C 19.867198 64.050239 19.865235 54.448471 19.863387 44.846875 L 13.359908 44.846875 z " /><g
       aria-label="TUFF"
       transform="scale(0.95395343,1.0482692)"
       id="text1834"
       style="font-weight:bold;font-size:27.8076px;line-height:1.25;font-family:Raleway;-inkscape-font-specification:'Raleway Bold';letter-spacing:-1.21339px;word-spacing:0px;fill:#1a1a1a;stroke-width:0.695193"><path
         d="M 37.993895,29.515874 H 25.258014 c -0.194653,0 -0.333691,0.139038 -0.333691,0.333691 v 2.558299 c 0,0.194653 0.139038,0.333691 0.333691,0.333691 h 4.504831 c 0.11123,0 0.166846,0.08342 0.166846,0.166846 v 15.739101 c 0,0.194654 0.139038,0.333692 0.333691,0.333692 h 2.725145 c 0.194653,0 0.333691,-0.139038 0.333691,-0.333692 V 32.908401 c 0,-0.111231 0.05562,-0.166846 0.166845,-0.166846 h 4.504832 c 0.194653,0 0.333691,-0.139038 0.333691,-0.333691 v -2.558299 c 0,-0.194653 -0.139038,-0.333691 -0.333691,-0.333691 z"
         style="font-family:'Berlin Type';-inkscape-font-specification:'Berlin Type Bold'"
         id="path313" /><path
         d="m 46.707838,49.509538 c 4.254563,0 6.979708,-2.864183 6.979708,-7.369014 V 29.849565 c 0,-0.194653 -0.139038,-0.333691 -0.333691,-0.333691 H 50.62871 c -0.194653,0 -0.333691,0.139038 -0.333691,0.333691 v 12.040691 c 0,2.864182 -1.306957,4.310178 -3.587181,4.310178 -2.280223,0 -3.58718,-1.445996 -3.58718,-4.310178 V 29.849565 c 0,-0.194653 -0.139038,-0.333691 -0.333691,-0.333691 h -2.725145 c -0.194653,0 -0.333691,0.139038 -0.333691,0.333691 v 12.290959 c 0,4.504831 2.725145,7.369014 6.979707,7.369014 z"
         style="font-family:'Berlin Type';-inkscape-font-specification:'Berlin Type Bold'"
         id="path315" /><path
         d="m 66.878497,29.515874 h -9.62143 c -0.194653,0 -0.333691,0.139038 -0.333691,0.333691 v 18.797937 c 0,0.194654 0.139038,0.333692 0.333691,0.333692 h 2.725145 c 0.194653,0 0.333691,-0.139038 0.333691,-0.333692 v -7.480244 c 0,-0.11123 0.08342,-0.166846 0.166846,-0.166846 h 6.395748 c 0.194653,0 0.333691,-0.139038 0.333691,-0.333691 v -2.558299 c 0,-0.194653 -0.139038,-0.333691 -0.333691,-0.333691 h -6.395748 c -0.111231,0 -0.166846,-0.08342 -0.166846,-0.166846 v -4.699484 c 0,-0.111231 0.08342,-0.166846 0.166846,-0.166846 h 6.395748 c 0.194653,0 0.333691,-0.139038 0.333691,-0.333691 v -2.558299 c 0,-0.194653 -0.139038,-0.333691 -0.333691,-0.333691 z"
         style="font-family:'Berlin Type';-inkscape-font-specification:'Berlin Type Bold'"
         id="path317" /><path
         d="m 79.568905,29.515874 h -9.621429 c -0.194653,0 -0.333691,0.139038 -0.333691,0.333691 v 18.797937 c 0,0.194654 0.139038,0.333692 0.333691,0.333692 h 2.725145 c 0.194653,0 0.333691,-0.139038 0.333691,-0.333692 v -7.480244 c 0,-0.11123 0.08342,-0.166846 0.166845,-0.166846 h 6.395748 c 0.194654,0 0.333692,-0.139038 0.333692,-0.333691 v -2.558299 c 0,-0.194653 -0.139038,-0.333691 -0.333692,-0.333691 h -6.395748 c -0.11123,0 -0.166845,-0.08342 -0.166845,-0.166846 v -4.699484 c 0,-0.111231 0.08342,-0.166846 0.166845,-0.166846 h 6.395748 c 0.194654,0 0.333692,-0.139038 0.333692,-0.333691 v -2.558299 c 0,-0.194653 -0.139038,-0.333691 -0.333692,-0.333691 z"
         style="font-family:'Berlin Type';-inkscape-font-specification:'Berlin Type Bold'"
         id="path319" /></g><path
       id="path6381"
       style="color:#000000;fill:#4f4f4f;stroke-linejoin:round;-inkscape-stroke:none;paint-order:markers fill stroke;fill-opacity:1"
       d="M 16.604671 -0.063562012 A 3.7434742 3.7434742 0 0 0 12.860714 3.6783285 L 12.860714 82.903467 L 20.347078 80.385274 L 20.347078 7.4228027 L 79.651986 7.4228027 L 79.651986 60.437138 L 87.13835 57.918945 L 87.13835 3.6783285 A 3.7434742 3.7434742 0 0 0 83.393876 -0.063562012 L 16.604671 -0.063562012 z " /><path
       d="m 30.415118,67.672165 c 2.369142,0 4.3873,-1.123149 5.387604,-2.983364 0.05265,-0.105296 0.0351,-0.193042 -0.0702,-0.263238 l -1.474133,-1.000305 c -0.105295,-0.0702 -0.22814,-0.05265 -0.298337,0.0702 -0.701968,1.31619 -1.96551,2.035707 -3.544938,2.035707 -2.404241,0 -4.001218,-1.790018 -4.001218,-4.334652 0,-2.544634 1.596977,-4.334653 4.001218,-4.334653 1.579428,0 2.84297,0.719518 3.544938,2.035708 0.0702,0.122844 0.193042,0.140393 0.298337,0.0702 l 1.474133,-1.000304 c 0.105295,-0.0702 0.122844,-0.157943 0.0702,-0.263238 -1.000304,-1.860215 -3.018462,-2.983364 -5.387604,-2.983364 -3.562488,0 -6.265065,2.614831 -6.265065,6.475655 0,3.860824 2.702577,6.475655 6.265065,6.475655 z"
       style="font-size:17.5492px;font-family:'Berlin Type';-inkscape-font-specification:'Berlin Type Bold';letter-spacing:-0.848929px;word-spacing:0px;stroke-width:0.438728;fill:#1a1a1a;fill-opacity:1"
       id="path16788" /><path
       d="m 42.447308,55.05429 h -3.053561 c -0.175492,0 -0.280787,0.05265 -0.333434,0.263238 l -3.386996,11.810611 c -0.0351,0.140394 0.0351,0.210591 0.175492,0.210591 h 1.825117 c 0.105295,0 0.193041,-0.05265 0.228139,-0.157943 l 0.614222,-2.176101 c 0.0351,-0.122844 0.08775,-0.157943 0.175492,-0.157943 h 4.457497 c 0.08775,0 0.140394,0.0351 0.175492,0.157943 l 0.614222,2.176101 c 0.0351,0.105295 0.122845,0.157943 0.22814,0.157943 h 1.825117 c 0.140393,0 0.21059,-0.0702 0.175492,-0.210591 L 42.780743,55.317528 C 42.728095,55.106937 42.6228,55.05429 42.447308,55.05429 Z m -3.2817,7.651451 1.561879,-5.4929 c 0.01755,-0.0702 0.05265,-0.105295 0.105295,-0.105295 h 0.175492 c 0.05265,0 0.08775,0.0351 0.105295,0.105295 l 1.561879,5.4929 c 0.01755,0.08775 -0.01755,0.122844 -0.08775,0.122844 H 39.25335 c -0.0702,0 -0.105295,-0.0351 -0.08775,-0.122844 z"
       style="font-size:17.5492px;font-family:'Berlin Type';-inkscape-font-specification:'Berlin Type Bold';letter-spacing:-0.848929px;word-spacing:0px;stroke-width:0.438728;fill:#1a1a1a;fill-opacity:1"
       id="path16790" /><path
       d="m 49.302491,67.128139 v -3.264151 c 0,-0.0702 0.05265,-0.105295 0.105295,-0.105295 h 1.175796 c 0.157943,0 0.22814,0.0351 0.333435,0.175492 l 2.263847,3.176405 c 0.122844,0.193041 0.21059,0.22814 0.421181,0.22814 h 2.105904 c 0.175492,0 0.228139,-0.122845 0.122844,-0.263238 l -2.63238,-3.544939 c -0.0702,-0.08775 -0.05265,-0.175492 0.0702,-0.228139 1.544329,-0.614222 2.562183,-1.965511 2.562183,-3.895923 0,-2.737675 -2.053256,-4.352201 -4.703186,-4.352201 h -3.755528 c -0.122845,0 -0.210591,0.08775 -0.210591,0.21059 v 11.863259 c 0,0.122845 0.08775,0.210591 0.210591,0.210591 H 49.0919 c 0.122845,0 0.210591,-0.08775 0.210591,-0.210591 z m 0.105295,-10.038142 h 1.596977 c 1.439034,0 2.579732,0.754616 2.579732,2.316494 0,1.561879 -1.140698,2.316495 -2.579732,2.316495 h -1.596977 c -0.0702,0 -0.105295,-0.05265 -0.105295,-0.105295 v -4.422399 c 0,-0.0702 0.0351,-0.105295 0.105295,-0.105295 z"
       style="font-size:17.5492px;font-family:'Berlin Type';-inkscape-font-specification:'Berlin Type Bold';letter-spacing:-0.848929px;word-spacing:0px;stroke-width:0.438728;fill:#1a1a1a;fill-opacity:1"
       id="path16792" /><path
       d="m 61.159178,55.05429 h -3.72043 c -0.122844,0 -0.21059,0.08775 -0.21059,0.21059 v 11.863259 c 0,0.122845 0.08775,0.210591 0.21059,0.210591 h 3.72043 c 3.457193,0 5.93163,-2.42179 5.93163,-6.14222 0,-3.720431 -2.474437,-6.14222 -5.93163,-6.14222 z M 59.36916,65.197727 v -8.002435 c 0,-0.0702 0.05265,-0.105295 0.105295,-0.105295 h 1.456584 c 2.000609,0 3.895922,1.035403 3.895922,4.106513 0,3.07111 -1.895313,4.106513 -3.895922,4.106513 h -1.456584 c -0.0702,0 -0.105295,-0.0351 -0.105295,-0.105296 z"
       style="font-size:17.5492px;font-family:'Berlin Type';-inkscape-font-specification:'Berlin Type Bold';letter-spacing:-0.848929px;word-spacing:0px;stroke-width:0.438728;fill:#1a1a1a;fill-opacity:1"
       id="path16794" /><path
       id="path16796"
       style="font-size:17.5492px;font-family:'Berlin Type';-inkscape-font-specification:'Berlin Type Bold';letter-spacing:-0.848929px;word-spacing:0px;stroke-width:0.438728;fill:#1a1a1a;fill-opacity:1"
       d="M 71.910339 54.738261 C 69.506101 54.738261 67.944173 56.440725 67.944173 58.388684 C 67.944173 60.371741 69.243002 61.688124 71.155863 62.039107 L 72.033329 62.19672 C 72.484913 62.284124 72.853148 62.427414 73.131453 62.634937 L 75.485832 61.84222 C 74.853304 60.808757 73.71717 60.22416 72.541825 60.003056 L 71.64679 59.845443 C 70.699133 59.652402 70.190548 59.073019 70.190548 58.318404 C 70.190548 57.440945 70.822269 56.774312 71.892769 56.774312 C 72.717582 56.774312 73.384546 57.265637 73.717981 58.037801 C 73.770631 58.160645 73.85817 58.195352 73.981014 58.142704 L 75.612956 57.493648 C 75.7358 57.440998 75.788594 57.353459 75.735946 57.230615 C 75.104175 55.738935 73.735454 54.738261 71.910339 54.738261 z " /><path
       id="path16796-1"
       style="font-size:17.5492px;font-family:'Berlin Type';-inkscape-font-specification:'Berlin Type Bold';letter-spacing:-0.848929px;word-spacing:0px;stroke-width:0.438728;fill:#00eae4;fill-opacity:1"
       d="M 75.486348 61.841703 L 73.133004 62.63442 C 73.524864 62.926888 73.735551 63.349242 73.735551 63.934082 C 73.735551 64.881738 73.068461 65.548454 71.804919 65.548454 C 70.804616 65.548454 70.014991 65.057417 69.699105 64.092212 C 69.664005 63.969367 69.558917 63.916575 69.436072 63.969222 L 67.803613 64.636365 C 67.680768 64.689015 67.628493 64.776554 67.68114 64.899398 C 68.33046 66.619218 69.874509 67.672355 71.804919 67.672355 C 74.437297 67.672355 75.998979 65.882371 75.998979 63.776469 C 75.998979 63.007885 75.807706 62.366748 75.486348 61.841703 z " /></g></svg>
